<?xml version="1.0" encoding="utf-8"?>
<!-- Generator: Adobe Illustrator 16.0.0, SVG Export Plug-In . SVG Version: 6.00 Build 0)  -->
<!DOCTYPE svg PUBLIC "-//W3C//DTD SVG 1.1//EN" "http://www.w3.org/Graphics/SVG/1.1/DTD/svg11.dtd">
<svg version="1.1" id="Layer_1" xmlns="http://www.w3.org/2000/svg" xmlns:xlink="http://www.w3.org/1999/xlink" x="0px" y="0px"
	 width="512px" height="512px" viewBox="0 0 512 512" enable-background="new 0 0 512 512" xml:space="preserve">
<path id="award-6" fill="#FFFFFF" d="M245.404,323.66L180.896,462l-16.597-45.633l-45.633,16.613l60.369-129.438
	c11.634,3.688,19.514,2.783,31.734,2.783C223.561,315.111,229.177,320.811,245.404,323.66z M301.23,306.326
	c-12.674,8.684-18.006,14.267-34.232,17.234L331.54,462l16.597-45.633l45.197,16.613l-60-129.604
	C321.565,307.215,313.67,306.326,301.23,306.326z M374.893,148.23c-8.28,24.208-8.313,19.547,0,43.864
	c0.871,2.515,1.273,5.088,1.273,7.636c0,7.712-3.805,15.164-10.561,19.849c-21.56,14.937-18.709,11.182-26.823,35.481
	c-3.403,10.142-13.21,17-24.274,17c-0.018,0-0.033,0-0.066,0c-26.59-0.094-21.963-1.519-43.403,13.545
	c-4.476,3.151-9.756,4.729-15.037,4.729c-5.281,0-10.562-1.576-15.038-4.729c-21.441-15.07-16.831-13.639-43.402-13.545
	c-0.017,0-0.051,0-0.067,0c-11.064,0-20.871-6.857-24.258-17c-8.114-24.333-5.331-20.561-26.823-35.481
	c-6.772-4.694-10.578-12.146-10.578-19.857c0-2.548,0.419-5.113,1.274-7.628c8.298-24.216,8.314-19.547,0-43.864
	c-0.855-2.515-1.274-5.088-1.274-7.627c0-7.72,3.806-15.164,10.578-19.857c21.476-14.904,18.692-11.132,26.823-35.482
	c3.387-10.142,13.193-16.999,24.258-16.999c0.017,0,0.033,0,0.067,0c26.521,0.092,21.811,1.626,43.402-13.554
	C245.438,51.567,250.719,50,256,50s10.563,1.567,15.037,4.711c21.441,15.071,16.832,13.646,43.403,13.554c0.017,0,0.05,0,0.066,0
	c11.064,0,20.871,6.857,24.274,16.999c8.113,24.3,5.265,20.545,26.822,35.482c6.757,4.686,10.562,12.129,10.562,19.84
	C376.166,143.134,375.764,145.716,374.893,148.23z M324.666,170.158c0-37.921-30.745-68.667-68.666-68.667
	s-68.667,30.746-68.667,68.667c0,37.921,30.746,68.667,68.667,68.667S324.666,208.079,324.666,170.158z"/>
</svg>
