<?xml version="1.0" encoding="utf-8"?>
<!-- Generator: Adobe Illustrator 16.0.0, SVG Export Plug-In . SVG Version: 6.00 Build 0)  -->
<!DOCTYPE svg PUBLIC "-//W3C//DTD SVG 1.1//EN" "http://www.w3.org/Graphics/SVG/1.1/DTD/svg11.dtd">
<svg version="1.1" id="Layer_1" xmlns="http://www.w3.org/2000/svg" xmlns:xlink="http://www.w3.org/1999/xlink" x="0px" y="0px"
	 width="400px" height="400px" viewBox="0 0 400 400" enable-background="new 0 0 400 400" xml:space="preserve">
<g>
	<path fill-rule="evenodd" clip-rule="evenodd" fill="#FFFFFF" d="M147.25,136.6l23.65,261.5c-11.8-1.6-23.183-4.183-34.15-7.75
		L45.5,200.1v-0.149L126.9,68.1L147.25,136.6z M175.6,398.7l24.7-83.351l53.9-181.5l68.95-13.4l57.5,60.9v0.05L341.8,166.75
		l-68.75-25.85l17.5,193.85L264,390.1c-19.967,6.601-41.3,9.9-64,9.9C191.667,400,183.533,399.566,175.6,398.7z"/>
	<path fill-rule="evenodd" clip-rule="evenodd" fill="#CCCCCC" d="M200.3,315.35L175.6,398.7c-1.6-0.2-3.167-0.4-4.7-0.601
		l-23.65-261.5L200.3,315.35z M290.55,334.75l-17.5-193.85l68.75,25.85L355.15,200L290.55,334.75z"/>
	<path fill-rule="evenodd" clip-rule="evenodd" fill-opacity="0.302" d="M264,390.1l26.55-55.35L355.15,200L341.8,166.75
		l38.851,14.65l7.899,87.2c-9.633,26.767-25.35,51.034-47.149,72.801c-14.534,14.566-30.217,26.416-47.051,35.55
		C284.616,382.25,274.5,386.634,264,390.1z M136.75,390.35c-28.9-9.399-54.95-25.716-78.15-48.949c-0.133-0.101-0.25-0.2-0.35-0.301
		l-12.75-141L136.75,390.35z"/>
	<path fill-rule="evenodd" clip-rule="evenodd" fill="#333333" fill-opacity="0.251" d="M380.65,181.35l-57.5-60.9l-68.95,13.4
		l-53.9,181.5L147.25,136.6L126.9,68.1L45.5,199.95L45.45,200l0.05,0.1l12.75,141C19.417,302.1,0,255.066,0,200
		C0,144.767,19.533,97.633,58.6,58.6C97.667,19.533,144.8,0,200,0c55.233,0,102.366,19.533,141.4,58.6
		C380.467,97.633,400,144.767,400,200c0,24.434-3.816,47.3-11.45,68.6l-7.899-87.2h0.05L380.65,181.35z"/>
</g>
</svg>
